<?xml version="1.0" standalone="no"?>
<!DOCTYPE svg PUBLIC "-//W3C//DTD SVG 20010904//EN"
 "http://www.w3.org/TR/2001/REC-SVG-20010904/DTD/svg10.dtd">
<svg version="1.0" xmlns="http://www.w3.org/2000/svg"
 width="2100.000000pt" height="882.000000pt" viewBox="0 0 2100.000000 882.000000"
 preserveAspectRatio="xMidYMid meet">

<g transform="translate(0.000000,882.000000) scale(0.100000,-0.100000)"
fill="#000000" stroke="none">
<path d="M4707 7733 c-3 -5 -17 -62 -32 -128 -37 -163 -40 -343 -7 -458 65
-227 203 -380 515 -566 212 -126 336 -225 457 -363 530 -607 628 -1490 244
-2193 -219 -402 -595 -724 -1039 -890 -369 -138 -797 -164 -1152 -70 -525 139
-990 511 -1248 998 -153 288 -221 545 -232 867 -17 503 167 983 510 1332 122
123 242 215 392 299 346 193 504 353 560 566 20 76 20 239 0 333 -21 104 -64
230 -80 236 -7 3 -64 -4 -126 -15 -972 -175 -1774 -894 -2104 -1886 -300 -901
-149 -1846 409 -2560 264 -339 702 -795 1195 -1245 58 -52 132 -120 165 -151
34 -31 86 -78 116 -104 30 -27 57 -51 60 -54 3 -4 48 -44 100 -91 175 -155
524 -473 670 -611 l145 -137 395 386 c707 691 1533 1523 1705 1716 429 482
669 990 741 1566 16 133 19 502 4 635 -59 520 -242 1041 -505 1435 -110 164
-190 262 -322 394 -352 353 -807 597 -1365 731 -157 38 -164 39 -171 28z"/>
<path d="M11603 6500 c-94 -19 -179 -87 -222 -179 l-26 -56 0 -1325 0 -1325
275 0 275 0 5 1148 5 1147 254 -997 c140 -549 272 -1067 294 -1151 l40 -152
305 2 306 3 36 140 c20 77 150 595 290 1152 l255 1011 3 -1154 2 -1154 275 0
275 0 0 1450 0 1450 -438 0 -438 0 -103 -397 c-284 -1101 -463 -1788 -466
-1791 -4 -5 -7 5 -54 188 -22 85 -106 409 -186 720 -81 311 -187 723 -237 915
-49 193 -92 353 -95 358 -6 10 -577 7 -630 -3z"/>
<path d="M7883 6481 c-92 -32 -168 -110 -193 -201 -6 -22 -10 -521 -10 -1352
l0 -1318 1045 0 1045 0 0 270 0 270 -750 0 -750 0 0 370 0 370 433 0 c491 0
502 1 581 71 26 23 59 65 74 93 24 47 27 63 30 189 l4 137 -561 0 -561 0 0
310 0 310 750 0 750 0 0 250 0 250 -917 0 c-855 -1 -922 -2 -970 -19z"/>
<path d="M10519 6486 c-81 -22 -162 -97 -195 -182 -18 -47 -19 -98 -19 -1369
l0 -1320 298 -3 297 -2 0 1445 0 1445 -167 -1 c-99 0 -187 -5 -214 -13z"/>
<path d="M15055 6490 c-87 -22 -164 -85 -201 -165 l-24 -50 0 -1332 0 -1333
1045 0 1045 0 0 270 0 270 -755 0 -755 0 0 370 0 369 458 3 457 3 54 30 c60
33 101 78 132 145 18 36 23 70 27 177 l5 133 -564 2 -564 3 -3 308 -2 307 755
0 755 0 0 250 0 250 -917 -1 c-505 -1 -931 -5 -948 -9z"/>
<path d="M17692 6490 c-68 -14 -140 -59 -176 -109 -53 -76 -59 -97 -64 -238
l-4 -133 443 0 c543 0 804 -12 912 -39 270 -70 420 -272 478 -646 18 -117 16
-448 -4 -565 -33 -195 -86 -318 -176 -413 -70 -74 -122 -110 -212 -147 -158
-66 -335 -80 -986 -80 l-453 0 0 -249 c0 -156 4 -251 10 -253 5 -1 308 0 672
3 727 6 772 9 948 69 456 152 726 523 801 1095 15 118 15 455 -1 575 -86 675
-392 1019 -992 1116 -84 13 -199 17 -628 20 -289 1 -544 -1 -568 -6z"/>
<path d="M4036 6301 c-81 -27 -158 -82 -201 -145 -65 -94 -68 -115 -73 -468
l-4 -318 -296 0 c-321 0 -375 -7 -453 -52 -61 -36 -126 -104 -154 -163 -119
-243 29 -517 300 -555 39 -5 190 -10 337 -10 l267 0 3 -322 3 -323 32 -67 c41
-88 101 -151 179 -189 239 -118 512 26 554 291 5 36 10 189 10 340 l0 275 252
-3 c387 -4 474 13 578 118 155 154 152 400 -5 550 -104 97 -166 110 -547 110
l-278 0 0 248 c0 316 -10 406 -50 488 -81 165 -282 251 -454 195z"/>
<path d="M13383 2873 c-36 -7 -80 -58 -88 -101 -12 -76 30 -134 115 -158 114
-33 150 -67 134 -128 -24 -97 -191 -82 -210 19 -5 28 -11 35 -30 35 -30 0 -32
-28 -4 -85 36 -74 129 -104 213 -67 90 40 113 165 43 231 -13 12 -58 32 -100
45 -90 28 -116 48 -116 88 0 45 40 78 92 78 54 0 83 -19 98 -65 14 -44 50 -50
50 -9 0 82 -93 137 -197 117z"/>
<path d="M14884 2869 c-45 -13 -100 -78 -118 -140 -49 -163 23 -336 147 -354
126 -19 218 81 219 239 1 88 -13 141 -51 193 -45 62 -118 85 -197 62z m122
-58 c50 -30 69 -82 69 -186 0 -104 -19 -156 -69 -186 -81 -50 -173 4 -196 115
-20 100 2 198 56 246 41 36 92 40 140 11z"/>
<path d="M15363 2873 c-34 -7 -80 -58 -87 -97 -15 -79 26 -137 114 -162 84
-25 117 -43 130 -73 26 -63 -21 -121 -97 -121 -38 0 -50 5 -79 34 -21 21 -34
44 -34 60 0 21 -5 26 -25 26 -31 0 -33 -27 -5 -85 36 -74 129 -104 213 -67 90
40 113 165 43 231 -13 12 -58 32 -100 45 -90 28 -116 48 -116 88 0 45 40 78
92 78 54 0 83 -19 98 -65 14 -44 50 -50 50 -9 0 82 -93 137 -197 117z"/>
<path d="M17165 2865 c-79 -28 -125 -116 -125 -241 0 -118 39 -197 115 -234
47 -23 84 -24 135 -7 32 12 39 10 80 -15 41 -26 45 -27 52 -11 10 27 10 27
-25 46 l-33 18 25 52 c23 45 26 65 26 152 0 110 -15 153 -72 208 -49 46 -108
57 -178 32z m140 -66 c39 -34 65 -104 65 -174 0 -47 -25 -141 -40 -150 -6 -4
-25 3 -44 14 -42 26 -43 26 -48 -3 -4 -18 1 -27 19 -35 34 -16 19 -31 -29 -31
-33 0 -47 6 -78 38 -47 46 -64 104 -58 192 8 113 60 179 140 180 28 0 46 -8
73 -31z"/>
<path d="M18834 2869 c-44 -12 -98 -76 -119 -139 -23 -69 -16 -189 13 -247 48
-93 138 -132 228 -98 82 31 126 115 126 240 0 182 -105 286 -248 244z m122
-58 c50 -30 69 -82 69 -186 0 -104 -19 -156 -69 -186 -82 -50 -172 3 -196 115
-20 99 2 198 56 246 41 36 92 40 140 11z"/>
<path d="M19312 2872 c-36 -11 -79 -59 -86 -96 -15 -79 26 -137 114 -162 84
-25 117 -43 130 -73 26 -63 -21 -121 -97 -121 -38 0 -50 5 -79 34 -21 21 -34
44 -34 60 0 21 -5 26 -25 26 -31 0 -33 -27 -5 -85 36 -74 129 -104 213 -67 90
40 113 165 43 231 -13 12 -58 32 -100 45 -90 28 -116 48 -116 88 0 45 40 78
92 78 54 0 83 -19 98 -65 8 -24 18 -35 31 -35 41 0 13 89 -39 126 -25 17 -106
26 -140 16z"/>
<path d="M7730 2625 l0 -245 150 0 150 0 0 30 0 30 -125 0 -125 0 0 80 0 80
110 0 110 0 0 30 0 30 -110 0 -110 0 0 75 0 75 120 0 120 0 0 30 0 30 -145 0
-145 0 0 -245z"/>
<path d="M8170 2625 l0 -245 25 0 25 0 2 191 3 192 105 -191 c97 -176 107
-191 133 -192 l27 0 0 245 0 245 -25 0 -25 0 0 -192 0 -193 -107 193 c-99 178
-110 192 -135 192 l-28 0 0 -245z"/>
<path d="M8660 2625 l0 -245 25 0 25 0 0 110 0 110 95 0 95 0 0 30 0 30 -95 0
-95 0 0 75 0 75 110 0 110 0 0 30 0 30 -135 0 -135 0 0 -245z"/>
<path d="M9070 2625 l0 -245 150 0 150 0 0 30 0 30 -125 0 -125 0 0 80 0 80
110 0 110 0 0 30 0 30 -110 0 -110 0 0 75 0 75 120 0 120 0 0 30 0 30 -145 0
-145 0 0 -245z"/>
<path d="M9510 2626 l0 -246 30 0 30 0 0 110 0 110 49 0 c59 0 77 -17 142
-140 41 -76 45 -80 77 -80 l33 0 -42 78 c-23 42 -55 94 -71 115 -20 26 -25 37
-14 37 26 0 75 50 87 89 14 48 -1 108 -37 142 -24 22 -34 24 -155 28 l-129 3
0 -246z m248 164 c32 -30 30 -82 -4 -109 -22 -17 -41 -21 -105 -21 l-79 0 0
75 0 75 83 0 c70 0 87 -3 105 -20z"/>
<path d="M9990 2626 l0 -246 25 0 25 0 0 202 c0 111 3 199 6 196 4 -5 65 -214
105 -360 8 -31 14 -38 34 -38 19 0 26 7 33 33 5 17 31 109 58 202 l49 170 3
-202 2 -203 25 0 25 0 0 246 0 245 -37 -3 -36 -3 -56 -197 c-31 -108 -59 -200
-63 -203 -3 -3 -11 18 -18 47 -7 28 -32 120 -55 203 l-43 150 -41 3 -41 3 0
-245z"/>
<path d="M10540 2625 l0 -245 150 0 150 0 0 30 0 30 -125 0 -125 0 0 80 0 80
110 0 110 0 0 30 0 30 -110 0 -110 0 0 75 0 75 120 0 120 0 0 30 0 30 -145 0
-145 0 0 -245z"/>
<path d="M10988 2864 c-5 -4 -8 -115 -8 -246 l0 -238 30 0 30 0 0 110 0 110
49 0 c59 0 77 -17 142 -140 41 -76 45 -80 77 -80 l33 0 -42 78 c-23 42 -55 94
-71 115 -20 26 -25 37 -14 37 27 0 75 51 86 91 14 50 -1 107 -36 140 -24 22
-35 24 -147 27 -67 2 -125 0 -129 -4z m240 -74 c32 -30 30 -82 -4 -109 -22
-17 -41 -21 -105 -21 l-79 0 0 75 0 75 83 0 c70 0 87 -3 105 -20z"/>
<path d="M11470 2625 l0 -245 30 0 30 0 0 245 0 245 -30 0 -30 0 0 -245z"/>
<path d="M11752 2733 c-23 -76 -58 -186 -76 -245 l-34 -108 27 0 c26 0 30 5
47 68 l20 67 89 3 90 3 20 -68 c18 -61 23 -68 48 -71 15 -2 27 0 27 5 0 5 -35
114 -78 243 -78 232 -79 235 -108 238 l-29 3 -43 -138z m107 -34 c17 -59 31
-109 31 -113 0 -3 -29 -6 -65 -6 -36 0 -65 3 -65 8 0 9 64 222 66 219 1 -1 15
-50 33 -108z"/>
<path d="M12600 2625 l0 -245 30 0 30 0 0 245 0 245 -30 0 -30 0 0 -245z"/>
<path d="M12810 2625 l0 -245 25 0 25 0 2 191 3 192 105 -191 c97 -176 107
-191 133 -192 l27 0 0 245 0 245 -25 0 -25 0 0 -192 0 -193 -107 193 c-99 178
-110 192 -135 192 l-28 0 0 -245z"/>
<path d="M13742 2682 c5 -207 14 -245 71 -286 38 -28 139 -29 180 -2 56 38 62
62 65 279 l4 197 -25 0 -25 0 -4 -192 c-2 -106 -8 -201 -12 -211 -22 -48 -118
-62 -163 -23 l-28 24 -3 201 -3 201 -31 0 -31 0 5 -188z"/>
<path d="M14220 2626 l0 -246 25 0 25 0 0 202 c0 111 3 199 6 196 4 -5 51
-166 104 -360 9 -31 16 -38 35 -38 19 0 26 7 33 33 5 17 31 109 58 202 l49
170 3 -202 2 -203 25 0 25 0 0 246 0 245 -37 -3 -37 -3 -55 -197 c-31 -108
-59 -199 -62 -202 -3 -3 -30 85 -60 197 l-55 202 -42 3 -42 3 0 -245z"/>
<path d="M15910 2864 c0 -3 34 -68 75 -143 l75 -138 0 -101 0 -102 25 0 25 0
0 104 0 104 80 139 c78 137 79 138 53 141 -14 2 -29 0 -33 -5 -5 -4 -34 -56
-65 -115 l-57 -108 -25 48 c-96 182 -96 182 -125 182 -15 0 -28 -3 -28 -6z"/>
<path d="M16610 2625 l0 -245 150 0 150 0 0 30 0 30 -125 0 -125 0 0 80 0 80
110 0 110 0 0 30 0 30 -110 0 -110 0 0 75 0 75 120 0 120 0 0 30 0 30 -145 0
-145 0 0 -245z"/>
<path d="M17562 2682 c5 -207 14 -245 71 -286 38 -28 139 -29 180 -2 56 38 62
62 65 279 l4 197 -25 0 -25 0 -4 -192 c-3 -206 -8 -226 -55 -247 -40 -19 -90
-13 -120 13 l-28 24 -3 201 -3 201 -31 0 -31 0 5 -188z"/>
<path d="M18050 2625 l0 -245 30 0 30 0 0 245 0 245 -30 0 -30 0 0 -245z"/>
<path d="M18270 2626 l0 -246 30 0 30 0 0 100 0 100 68 1 c125 1 172 35 180
132 5 62 -14 113 -50 137 -16 10 -60 16 -140 18 l-118 4 0 -246z m240 157 c17
-22 21 -37 17 -68 -8 -59 -34 -75 -123 -75 l-74 0 0 85 0 85 79 0 c75 0 81 -2
101 -27z"/>
<path d="M12140 2415 c0 -24 5 -35 15 -35 20 0 19 -30 -1 -59 -11 -15 -13 -26
-6 -33 18 -18 46 40 50 103 l4 59 -31 0 c-29 0 -31 -2 -31 -35z"/>
<path d="M9524 2031 c-72 -33 -114 -117 -114 -230 0 -145 58 -242 153 -256 91
-14 171 39 192 127 6 23 3 29 -16 37 -22 8 -25 5 -37 -30 -41 -120 -182 -116
-224 6 -37 108 -12 250 51 292 64 43 137 20 167 -53 13 -31 16 -33 38 -23 22
10 23 14 14 41 -15 42 -70 94 -108 102 -50 9 -72 7 -116 -13z"/>
<path d="M10014 2039 c-45 -13 -100 -78 -118 -140 -64 -214 72 -408 240 -344
83 32 127 119 126 251 -1 172 -109 273 -248 233z m122 -58 c50 -30 69 -82 69
-186 0 -138 -45 -205 -139 -205 -73 0 -136 94 -136 205 0 111 63 205 136 205
22 0 53 -9 70 -19z"/>
<path d="M10495 2043 c-91 -23 -124 -147 -57 -216 15 -16 49 -34 82 -43 84
-25 117 -43 130 -73 26 -63 -21 -121 -97 -121 -38 0 -50 5 -79 34 -21 21 -34
44 -34 60 0 21 -5 26 -25 26 -31 0 -33 -27 -5 -85 36 -74 129 -104 213 -67 90
40 113 165 43 231 -13 12 -58 32 -100 45 -90 28 -116 48 -116 88 0 45 40 78
92 78 54 0 83 -19 98 -65 14 -44 50 -50 50 -9 0 81 -100 141 -195 117z"/>
<path d="M12330 2028 c-69 -35 -103 -98 -108 -202 -6 -110 16 -186 67 -237 91
-91 245 -44 276 83 6 23 3 29 -16 37 -22 8 -25 5 -37 -30 -29 -84 -113 -114
-178 -64 -60 46 -82 185 -46 290 40 116 173 127 218 19 13 -31 16 -33 38 -23
22 10 23 14 14 41 -15 42 -70 94 -108 102 -53 10 -73 7 -120 -16z"/>
<path d="M13253 2043 c-34 -7 -80 -58 -87 -97 -15 -79 26 -137 114 -162 84
-25 117 -43 130 -73 26 -63 -21 -121 -97 -121 -38 0 -50 5 -79 34 -21 21 -34
44 -34 60 0 21 -5 26 -25 26 -31 0 -33 -27 -5 -85 36 -74 129 -104 213 -67 90
40 113 165 43 231 -13 12 -58 32 -100 45 -90 28 -116 48 -116 88 0 45 40 78
92 78 53 0 85 -21 96 -63 6 -22 15 -33 30 -35 18 -3 22 2 22 24 0 82 -93 137
-197 117z"/>
<path d="M7720 1796 l0 -246 25 0 25 0 0 202 c0 111 3 199 6 196 4 -5 65 -214
105 -360 8 -31 14 -38 34 -38 19 0 26 7 33 33 5 17 31 109 58 202 l49 170 3
-202 2 -203 25 0 25 0 0 246 0 245 -37 -3 -36 -3 -57 -197 c-31 -109 -59 -200
-61 -203 -3 -2 -30 86 -61 198 l-55 202 -41 3 -42 3 0 -245z"/>
<path d="M8270 1795 l0 -245 150 0 150 0 0 30 0 30 -125 0 -125 0 0 80 0 80
110 0 110 0 0 30 0 30 -110 0 -110 0 0 75 0 75 120 0 120 0 0 30 0 30 -145 0
-145 0 0 -245z"/>
<path d="M8710 1796 l0 -246 88 0 c111 0 153 12 191 55 39 45 55 101 55 201 0
67 -5 90 -27 135 -38 79 -67 93 -199 97 l-108 4 0 -246z m225 162 c39 -30 55
-76 55 -155 0 -90 -14 -136 -51 -167 -26 -22 -40 -26 -100 -26 l-69 0 0 185 0
185 69 0 c55 0 74 -4 96 -22z"/>
<path d="M9200 1795 l0 -245 30 0 30 0 0 245 0 245 -30 0 -30 0 0 -245z"/>
<path d="M11090 1795 l0 -245 150 0 150 0 0 30 0 30 -125 0 -125 0 0 80 0 80
110 0 110 0 0 30 0 30 -110 0 -110 0 0 75 0 75 120 0 120 0 0 30 0 30 -145 0
-145 0 0 -245z"/>
<path d="M11530 1795 l0 -245 25 0 25 0 2 191 3 192 105 -191 c97 -176 107
-191 133 -192 l27 0 0 245 0 245 -25 0 -25 0 0 -192 0 -193 -107 193 c-99 179
-109 192 -135 192 l-28 0 0 -245z"/>
<path d="M12771 1868 c-30 -95 -64 -206 -77 -245 l-22 -73 28 0 c26 0 29 4 46
70 l18 71 90 -3 89 -3 22 -65 c19 -56 25 -65 48 -68 15 -2 27 1 27 6 0 5 -35
115 -78 243 -78 230 -79 234 -108 237 l-29 3 -54 -173z m118 1 c17 -59 31
-109 31 -113 0 -3 -30 -6 -66 -6 -58 0 -66 2 -62 18 19 67 62 211 64 209 1 -1
15 -50 33 -108z"/>
<path d="M13671 1868 c-30 -95 -64 -206 -77 -245 l-22 -73 27 0 c25 0 29 5 47
68 l19 67 90 3 90 3 20 -68 c18 -61 23 -68 48 -71 15 -2 27 1 27 6 0 5 -35
115 -78 243 -78 230 -79 234 -108 237 l-29 3 -54 -173z m118 0 c17 -60 31
-110 31 -113 0 -3 -29 -5 -65 -5 -36 0 -65 3 -65 8 0 9 64 222 66 219 1 -1 15
-50 33 -109z"/>
</g>
</svg>
