<?xml version="1.0" standalone="no"?>
<!DOCTYPE svg PUBLIC "-//W3C//DTD SVG 20010904//EN"
 "http://www.w3.org/TR/2001/REC-SVG-20010904/DTD/svg10.dtd">
<svg version="1.0" xmlns="http://www.w3.org/2000/svg"
 width="1920.000000pt" height="1280.000000pt" viewBox="0 0 1920.000000 1280.000000"
 preserveAspectRatio="xMidYMid meet">

<g transform="translate(0.000000,1280.000000) scale(0.100000,-0.100000)"
fill="#000000" stroke="none">
<path d="M8535 8394 c-22 -2 -134 -8 -250 -14 -115 -6 -304 -17 -420 -25 -115
-8 -286 -19 -380 -25 -223 -12 -404 -27 -485 -40 -212 -35 -664 -120 -770
-146 -30 -8 -61 -14 -70 -14 -30 0 -166 -49 -230 -83 -185 -98 -248 -139 -325
-214 -69 -67 -84 -88 -106 -148 -46 -123 -71 -209 -76 -265 -7 -78 13 -295 33
-360 51 -166 103 -279 167 -364 18 -24 56 -75 85 -114 29 -39 90 -101 135
-138 45 -37 84 -70 87 -73 11 -13 129 -100 200 -149 66 -45 178 -102 440 -224
41 -20 119 -53 173 -74 l97 -38 -75 -69 c-75 -69 -90 -98 -63 -125 24 -24 49
-11 140 73 50 47 96 85 102 85 18 -1 158 -34 266 -63 30 -8 91 -22 135 -32 44
-9 91 -21 105 -25 14 -4 61 -15 105 -24 44 -10 118 -25 165 -35 l85 -17 6 -60
c4 -32 7 -100 8 -150 1 -73 -2 -93 -14 -98 -24 -9 -18 -56 10 -78 20 -15 25
-29 25 -61 0 -57 26 -249 42 -310 13 -52 43 -82 72 -71 22 8 30 46 18 86 -11
34 -26 140 -38 261 l-7 69 69 -8 c279 -31 665 21 852 115 20 10 48 22 61 26
23 7 23 6 17 -37 -20 -132 -2 -471 26 -503 4 -5 8 -16 8 -26 0 -23 74 -105
113 -124 144 -73 354 -12 510 149 94 96 179 225 237 356 13 30 25 57 27 59 2
2 11 -3 20 -11 29 -25 52 -29 99 -17 34 9 55 24 88 61 l43 49 33 -29 c49 -45
118 -79 185 -91 51 -9 71 -8 128 8 81 22 132 56 202 134 48 53 54 57 67 41 32
-41 93 -94 108 -94 9 0 21 -5 27 -11 7 -7 46 -11 96 -11 80 1 90 3 175 46 l91
46 36 -21 c35 -21 43 -37 26 -55 -5 -5 -21 -45 -36 -89 -14 -44 -30 -89 -35
-100 -21 -48 -135 -388 -195 -584 -15 -50 -15 -54 1 -72 23 -25 50 -24 67 3 8
13 29 70 47 128 55 176 170 512 219 640 l21 55 122 1 c138 2 174 12 294 82 69
40 211 161 254 215 18 22 29 27 68 27 105 0 191 40 283 130 62 61 119 153 119
192 0 22 -25 40 -51 36 -16 -2 -31 -19 -48 -53 -43 -82 -120 -158 -196 -190
-51 -21 -69 -25 -78 -16 -8 8 -8 14 -2 19 22 16 65 130 65 173 0 32 14 44 60
54 19 4 53 13 75 20 22 7 74 22 115 34 41 12 111 34 154 51 44 16 83 27 88 24
8 -5 -6 -34 -82 -169 -30 -55 -62 -96 -147 -192 -86 -97 -128 -136 -245 -227
-48 -37 -90 -72 -94 -77 -8 -14 23 -59 41 -59 22 0 61 26 171 114 189 152 327
327 445 564 50 101 52 103 106 128 31 13 61 24 67 24 15 0 277 132 371 187 94
55 231 168 278 229 84 108 114 214 85 298 -16 47 -36 61 -72 52 -30 -7 -30 -8
-11 -102 15 -69 -53 -187 -158 -277 -91 -77 -148 -113 -317 -200 -170 -87
-256 -124 -266 -114 -3 3 -1 20 4 39 30 96 45 222 39 321 -18 278 -28 336 -98
539 -59 175 -70 195 -184 368 -105 158 -141 201 -209 255 l-38 31 15 44 c16
45 49 126 69 167 16 33 -4 73 -36 73 -29 0 -42 -20 -85 -125 -18 -44 -37 -84
-41 -89 -5 -4 -35 12 -67 36 -92 71 -190 122 -331 172 -71 25 -134 46 -140 46
-9 0 -51 12 -177 51 -208 64 -382 95 -730 129 -554 54 -747 69 -955 74 -278 8
-1303 15 -1355 10z m1555 -109 c215 -14 407 -31 625 -56 55 -6 127 -13 160
-15 204 -14 486 -63 627 -107 23 -8 72 -22 108 -32 157 -44 370 -119 430 -152
64 -36 210 -139 210 -148 0 -7 -108 -271 -136 -333 -13 -29 -24 -57 -24 -62 0
-6 -4 -18 -9 -28 -10 -18 -51 -116 -78 -187 -9 -22 -21 -53 -29 -70 -7 -16
-42 -103 -78 -193 -36 -89 -72 -177 -79 -195 -8 -18 -22 -52 -32 -77 -9 -25
-25 -65 -36 -90 -10 -25 -43 -110 -74 -190 -30 -80 -64 -165 -74 -190 -10 -25
-26 -63 -34 -85 -46 -119 -55 -128 -69 -62 -35 167 -199 269 -333 208 -46 -20
-101 -79 -122 -128 -22 -54 -43 -184 -41 -253 l3 -64 -80 -12 c-44 -6 -83 -10
-87 -7 -5 2 -8 21 -8 41 0 43 -7 55 -37 71 -15 7 -30 8 -47 1 -24 -9 -37 -31
-74 -121 -9 -24 -16 -26 -123 -38 -63 -7 -160 -15 -217 -18 l-103 -6 7 99 c11
162 -28 254 -107 254 -76 0 -135 -111 -147 -279 -7 -83 -8 -86 -33 -89 -24 -3
-26 0 -32 48 -9 71 -36 123 -71 135 -25 8 -31 6 -52 -18 -26 -31 -44 -85 -44
-138 l0 -36 -58 -6 c-32 -4 -156 -9 -275 -13 -241 -8 -228 -12 -202 61 19 53
19 173 0 219 -26 61 -89 73 -134 25 -26 -28 -65 -112 -80 -174 -33 -134 -27
-125 -74 -125 -54 0 -324 18 -447 30 -52 5 -160 14 -240 20 -179 13 -303 27
-330 35 -19 6 -21 14 -18 87 l3 81 120 61 c138 71 225 118 380 206 61 35 130
74 155 88 25 14 89 52 143 84 55 32 101 58 104 58 4 0 21 11 39 25 18 14 35
25 38 25 3 0 72 40 153 88 82 49 181 108 222 133 41 24 90 53 108 64 18 11 81
49 140 84 60 35 137 82 173 104 36 23 81 49 100 59 19 11 58 33 87 51 56 34
388 232 432 257 168 97 170 98 153 135 -16 34 -49 32 -114 -6 -50 -30 -67 -40
-150 -88 -93 -53 -316 -185 -338 -201 -14 -9 -43 -27 -65 -39 -22 -12 -62 -36
-90 -53 -27 -17 -63 -39 -80 -48 -16 -10 -156 -93 -310 -185 -154 -93 -293
-176 -310 -185 -16 -9 -60 -36 -98 -58 -37 -23 -69 -42 -72 -42 -3 0 -36 -20
-75 -45 -39 -25 -73 -45 -75 -45 -3 0 -34 -17 -68 -38 -57 -36 -84 -52 -192
-112 -180 -101 -233 -130 -239 -130 -4 0 -5 8 -1 19 3 10 -2 28 -13 41 -18 22
-19 22 -73 7 -30 -8 -70 -18 -89 -22 -19 -4 -52 -11 -73 -15 -48 -10 -52 -2
-61 120 -8 113 -20 248 -36 385 l-12 99 149 146 c81 80 209 200 283 265 74 66
144 129 156 140 12 11 33 30 47 42 113 96 188 159 292 245 123 102 155 133
155 149 0 11 -37 49 -49 49 -16 0 -372 -294 -556 -460 -44 -40 -120 -109 -170
-153 -49 -45 -141 -131 -202 -191 -62 -60 -115 -108 -117 -105 -2 2 -16 85
-30 184 -14 99 -30 205 -35 235 -6 30 -15 96 -22 145 -15 115 -43 150 -84 109
-19 -19 -16 -73 15 -269 21 -130 70 -472 70 -487 0 -5 -35 -46 -77 -91 -43
-46 -121 -129 -173 -186 -52 -58 -102 -111 -110 -120 -8 -9 -69 -77 -135 -151
-66 -74 -161 -178 -211 -230 l-92 -94 -73 28 c-151 59 -510 224 -604 278 -22
12 -118 83 -212 156 -178 137 -212 172 -340 352 -60 85 -87 145 -137 310 -21
71 -26 108 -28 225 -2 137 5 189 42 280 4 11 18 46 30 78 34 88 122 161 325
273 96 52 131 67 210 89 64 18 218 52 270 60 22 4 74 14 115 22 142 29 165 34
248 48 204 37 256 44 402 59 85 8 200 18 255 21 55 3 201 13 325 21 124 8 304
19 400 24 96 6 186 12 200 14 14 1 363 4 775 4 560 1 807 -2 975 -13z m2311
-632 c59 -61 76 -84 181 -248 61 -95 90 -160 138 -305 66 -200 79 -281 81
-503 1 -115 -3 -156 -27 -263 l-28 -127 -50 -22 c-55 -24 -252 -93 -301 -106
-16 -4 -75 -19 -129 -34 -79 -21 -105 -24 -123 -16 -13 6 -42 11 -65 11 -34 0
-47 -6 -80 -40 -36 -35 -50 -42 -151 -65 -62 -15 -123 -31 -137 -35 -14 -5
-47 -12 -74 -16 -40 -5 -48 -4 -44 7 4 8 23 57 43 109 20 52 50 129 66 170 43
104 64 158 82 205 17 46 53 136 72 180 7 17 19 48 28 70 27 71 68 169 78 187
5 10 9 22 9 28 0 5 11 33 24 62 13 29 47 112 76 183 72 181 99 247 111 267 5
10 9 22 9 28 0 5 11 33 24 62 13 29 41 96 62 148 38 95 51 120 63 120 4 0 32
-26 62 -57z m-4661 -1079 c5 -55 14 -146 19 -204 6 -58 11 -132 12 -164 l3
-60 -65 -20 c-81 -26 -89 -32 -89 -60 0 -30 20 -47 56 -46 16 0 48 -3 72 -6
48 -7 54 -25 25 -74 -15 -27 -15 -30 1 -55 19 -29 33 -119 20 -128 -11 -6
-115 13 -262 48 -59 14 -134 32 -167 40 -254 60 -322 77 -333 80 -11 4 129
166 228 265 8 8 47 51 85 95 236 270 367 407 378 396 5 -5 13 -53 17 -107z
m3569 -440 c19 -9 48 -40 67 -70 32 -50 34 -59 34 -137 l0 -84 -37 -7 c-63
-10 -227 -36 -248 -39 -47 -5 -35 213 17 285 44 63 107 82 167 52z m-3193 -12
c-8 -14 -106 -56 -113 -49 -11 11 14 31 55 43 46 15 65 16 58 6z m-190 -97
c-16 -17 -46 -20 -46 -6 0 8 13 13 53 20 5 0 2 -6 -7 -14z m2213 -117 c11 -29
2 -199 -12 -215 -5 -7 -20 -13 -33 -13 -22 0 -24 4 -24 57 0 59 36 193 52 193
5 0 12 -10 17 -22z m1948 -44 c-7 -42 -45 -124 -57 -124 -16 0 -23 71 -11 110
11 37 17 41 65 49 5 0 6 -15 3 -35z m-2973 -157 c-18 -48 -30 -65 -37 -58 -7
7 -7 22 1 49 7 22 12 47 12 56 0 9 10 38 23 64 l22 47 3 -45 c2 -31 -5 -66
-24 -113z m2808 73 c3 -49 10 -74 27 -99 l24 -33 -87 -87 c-70 -70 -105 -97
-185 -138 -87 -46 -107 -53 -179 -58 -83 -7 -122 -1 -122 17 0 5 6 24 14 41
15 35 90 235 114 305 8 24 20 45 26 47 6 1 81 17 166 35 85 18 162 37 170 41
22 12 28 0 32 -71z m-552 -53 c0 -20 -100 -175 -127 -197 -32 -25 -42 -18 -76
53 -32 69 -47 116 -38 121 4 3 45 10 91 15 46 6 85 13 88 16 11 11 62 4 62 -8z
m-343 -49 c8 -13 30 -68 40 -103 4 -11 22 -43 40 -72 18 -29 33 -56 33 -61 0
-5 -31 -23 -68 -41 -85 -39 -160 -42 -222 -10 -45 23 -80 79 -80 126 0 28 29
115 44 130 4 4 49 15 99 24 51 9 95 17 99 18 4 0 10 -5 15 -11z m-2809 -67
c304 -27 469 -39 608 -47 132 -8 144 -12 121 -47 -15 -24 -187 -117 -215 -117
-7 0 -40 -9 -72 -20 -33 -11 -88 -25 -123 -31 -34 -5 -91 -15 -127 -20 -97
-16 -456 -7 -475 12 -10 10 -18 55 -24 149 -5 74 -7 138 -4 143 3 5 21 7 40 4
19 -4 141 -15 271 -26z m2436 11 c2 -4 7 -23 11 -42 12 -66 -106 -210 -214
-262 -68 -33 -160 -19 -236 34 -59 42 -71 72 -50 129 9 24 21 58 26 76 9 31
10 31 97 38 48 4 141 13 207 20 159 16 153 16 159 7z m-653 -104 c10 -31 23
-66 29 -78 10 -18 6 -29 -30 -76 -22 -30 -48 -54 -57 -54 -28 0 -53 31 -53 66
0 54 29 187 42 196 30 19 51 3 69 -54z m-249 10 c3 -24 11 -75 17 -113 13 -70
13 -71 -21 -157 -53 -132 -123 -241 -220 -342 -133 -140 -263 -196 -372 -162
-62 20 -86 43 -118 111 -22 47 -23 62 -23 260 0 116 4 236 8 267 8 51 14 63
60 108 l52 50 160 1 c88 1 212 5 275 9 63 3 129 7 146 8 31 2 32 0 36 -40z
m1578 -67 c0 -21 -13 -41 -26 -41 -17 0 -18 22 -2 38 14 14 28 16 28 3z"/>
</g>
</svg>
